<?xml version="1.0" encoding="utf-8"?>
<!-- Generator: Adobe Illustrator 22.0.1, SVG Export Plug-In . SVG Version: 6.00 Build 0)  -->
<svg version="1.1" id="图层_1" xmlns="http://www.w3.org/2000/svg" xmlns:xlink="http://www.w3.org/1999/xlink" x="0px" y="0px"
	 viewBox="0 0 98.9 43.9" style="enable-background:new 0 0 98.9 43.9;" xml:space="preserve">
<style type="text/css">
	.st0{fill:#676666;}
</style>
<g>
	<g>
		<polygon class="st0" points="47,27.6 37.8,31 32.5,27.9 44.5,22.8 		"/>
		<path class="st0" d="M18.8,25.5l0,4.9L3.4,42.9l-3.3-6.1L13,30.5L3,30.3l-2.3-4.8H18.8L18.8,25.5z M49.8,38.7l-23.1-13l-0.1-2.9
			l15.7,0l0-17.9l-16.5,0l1.1-3.8l-5-1.1L20,4.9l-14.7,0l0.1,17.9l16.1-0.1l0.1,15.1l-7.5,0.1l2.8,6l9.8,0l0-13.3l18.5,11.8
			L49.8,38.7L49.8,38.7z M10.5,11.7V9.9l26.8-0.1v8.3l-26.8,0.1v-2l23-0.2l0.1-4.3L10.5,11.7z"/>
	</g>
	<path class="st0" d="M98.9,8.5l-42.5,2.9l0-6.6l42.5-1.5V8.5L98.9,8.5z M80.1,11.8l0,5.7l17.4,0.1l0.1,21.2l-9.4,0l-3.3-5.2
		l7.6-0.1l0.1-11.1l-12.6,0l-0.2,21.4h-5.4l-0.2-21.4l-12.5-0.2v16.6h-5.4l0-21.3l17.9,0l0-5.3L80.1,11.8z"/>
</g>
</svg>
